<mxfile host="app.diagrams.net" agent="Mozilla/5.0 (Windows NT 10.0; Win64; x64) AppleWebKit/537.36 (KHTML, like Gecko) Chrome/129.0.0.0 Safari/537.36" version="24.7.14">
  <diagram name="Page-1" id="zdLS6XzUSG3x8lp1yBCd">
    <mxGraphModel dx="819" dy="481" grid="1" gridSize="10" guides="1" tooltips="1" connect="1" arrows="1" fold="1" page="1" pageScale="1" pageWidth="827" pageHeight="1169" background="none" math="0" shadow="0">
      <root>
        <mxCell id="0" />
        <mxCell id="1" parent="0" />
        <mxCell id="JbvqnxUOl3hfyljxUC-s-29" value="" style="curved=1;endArrow=classic;html=1;rounded=0;exitX=1;exitY=0;exitDx=0;exitDy=0;entryX=0;entryY=0;entryDx=0;entryDy=0;strokeWidth=2;" parent="1" target="JbvqnxUOl3hfyljxUC-s-32" edge="1">
          <mxGeometry width="50" height="50" relative="1" as="geometry">
            <mxPoint x="154.14213562373106" y="424.35786437626894" as="sourcePoint" />
            <mxPoint x="285.85786437626894" y="425.35786437626894" as="targetPoint" />
            <Array as="points">
              <mxPoint x="380" y="200" />
            </Array>
          </mxGeometry>
        </mxCell>
        <mxCell id="JbvqnxUOl3hfyljxUC-s-33" value="" style="curved=1;endArrow=classic;html=1;rounded=0;exitX=1;exitY=0;exitDx=0;exitDy=0;entryX=0;entryY=0;entryDx=0;entryDy=0;strokeWidth=2;" parent="1" target="JbvqnxUOl3hfyljxUC-s-31" edge="1">
          <mxGeometry width="50" height="50" relative="1" as="geometry">
            <mxPoint x="394.14213562373106" y="424.35786437626894" as="sourcePoint" />
            <mxPoint x="456" y="314.5" as="targetPoint" />
            <Array as="points">
              <mxPoint x="460" y="359.5" />
            </Array>
          </mxGeometry>
        </mxCell>
        <mxCell id="JbvqnxUOl3hfyljxUC-s-34" value="" style="curved=1;endArrow=classic;html=1;rounded=0;exitX=1;exitY=0;exitDx=0;exitDy=0;entryX=0;entryY=0;entryDx=0;entryDy=0;strokeWidth=2;" parent="1" target="JbvqnxUOl3hfyljxUC-s-32" edge="1">
          <mxGeometry width="50" height="50" relative="1" as="geometry">
            <mxPoint x="394.14213562373106" y="424.35786437626894" as="sourcePoint" />
            <mxPoint x="456" y="434.5" as="targetPoint" />
            <Array as="points">
              <mxPoint x="500" y="319.5" />
            </Array>
          </mxGeometry>
        </mxCell>
        <mxCell id="JbvqnxUOl3hfyljxUC-s-37" value="" style="curved=1;endArrow=classic;html=1;rounded=0;exitX=1;exitY=0;exitDx=0;exitDy=0;entryX=0;entryY=0;entryDx=0;entryDy=0;strokeWidth=2;" parent="1" source="JbvqnxUOl3hfyljxUC-s-36" edge="1">
          <mxGeometry width="50" height="50" relative="1" as="geometry">
            <mxPoint x="320" y="394.5" as="sourcePoint" />
            <mxPoint x="605.8578643762689" y="425.35786437626894" as="targetPoint" />
            <Array as="points">
              <mxPoint x="460" y="279.5" />
            </Array>
          </mxGeometry>
        </mxCell>
        <mxCell id="JbvqnxUOl3hfyljxUC-s-39" value="" style="curved=1;endArrow=classic;html=1;rounded=0;exitX=1;exitY=0;exitDx=0;exitDy=0;entryX=0;entryY=0;entryDx=0;entryDy=0;strokeWidth=2;" parent="1" source="JbvqnxUOl3hfyljxUC-s-38" edge="1">
          <mxGeometry width="50" height="50" relative="1" as="geometry">
            <mxPoint x="720" y="548.5" as="sourcePoint" />
            <mxPoint x="605.8578643762689" y="425.35786437626894" as="targetPoint" />
            <Array as="points">
              <mxPoint x="420" y="239.5" />
            </Array>
          </mxGeometry>
        </mxCell>
        <mxCell id="qRD6dHeys7h9iACDQK_x-47" value="&lt;font face=&quot;Helvetica&quot; style=&quot;font-size: 24px;&quot;&gt;0&lt;/font&gt;" style="ellipse;whiteSpace=wrap;html=1;aspect=fixed;strokeWidth=2;strokeColor=#030303;" parent="1" vertex="1">
          <mxGeometry x="120" y="839.5" width="40" height="40" as="geometry" />
        </mxCell>
        <mxCell id="qRD6dHeys7h9iACDQK_x-48" value="&lt;font face=&quot;Helvetica&quot; style=&quot;font-size: 24px;&quot;&gt;3&lt;/font&gt;" style="ellipse;whiteSpace=wrap;html=1;aspect=fixed;strokeWidth=2;strokeColor=#030303;" parent="1" vertex="1">
          <mxGeometry x="840" y="839.5" width="40" height="40" as="geometry" />
        </mxCell>
        <mxCell id="qRD6dHeys7h9iACDQK_x-52" value="" style="curved=1;endArrow=classic;html=1;rounded=0;exitX=1;exitY=0;exitDx=0;exitDy=0;entryX=0;entryY=0;entryDx=0;entryDy=0;strokeWidth=2;" parent="1" target="qRD6dHeys7h9iACDQK_x-55" edge="1">
          <mxGeometry width="50" height="50" relative="1" as="geometry">
            <mxPoint x="154.14213562373106" y="624.3578643762689" as="sourcePoint" />
            <mxPoint x="285.85786437626894" y="625.3578643762689" as="targetPoint" />
            <Array as="points">
              <mxPoint x="420" y="379.5" />
            </Array>
          </mxGeometry>
        </mxCell>
        <mxCell id="qRD6dHeys7h9iACDQK_x-49" value="" style="curved=1;endArrow=classic;html=1;rounded=0;exitX=1;exitY=0;exitDx=0;exitDy=0;entryX=0;entryY=0;entryDx=0;entryDy=0;strokeWidth=2;strokeColor=#030303;" parent="1" source="qRD6dHeys7h9iACDQK_x-47" edge="1">
          <mxGeometry width="50" height="50" relative="1" as="geometry">
            <mxPoint x="244" y="574.5" as="sourcePoint" />
            <mxPoint x="205.85786437626894" y="845.3578643762692" as="targetPoint" />
            <Array as="points">
              <mxPoint x="180" y="818" />
            </Array>
          </mxGeometry>
        </mxCell>
        <mxCell id="qRD6dHeys7h9iACDQK_x-50" value="" style="curved=1;endArrow=classic;html=1;rounded=0;exitX=1;exitY=0;exitDx=0;exitDy=0;entryX=0;entryY=0;entryDx=0;entryDy=0;strokeWidth=2;strokeColor=#030303;" parent="1" source="qRD6dHeys7h9iACDQK_x-47" target="qRD6dHeys7h9iACDQK_x-48" edge="1">
          <mxGeometry width="50" height="50" relative="1" as="geometry">
            <mxPoint x="164" y="855.5" as="sourcePoint" />
            <mxPoint x="216" y="854.5" as="targetPoint" />
            <Array as="points">
              <mxPoint x="500" y="520" />
            </Array>
          </mxGeometry>
        </mxCell>
        <mxCell id="qRD6dHeys7h9iACDQK_x-115" value="&lt;font face=&quot;Helvetica&quot; style=&quot;font-size: 24px;&quot;&gt;1&lt;/font&gt;" style="ellipse;whiteSpace=wrap;html=1;aspect=fixed;strokeWidth=2;" parent="1" vertex="1">
          <mxGeometry x="200" y="839.5" width="40" height="40" as="geometry" />
        </mxCell>
        <mxCell id="qRD6dHeys7h9iACDQK_x-116" value="" style="curved=1;endArrow=classic;html=1;rounded=0;exitX=1;exitY=0;exitDx=0;exitDy=0;entryX=0;entryY=0;entryDx=0;entryDy=0;strokeWidth=2;" parent="1" source="qRD6dHeys7h9iACDQK_x-115" target="qRD6dHeys7h9iACDQK_x-119" edge="1">
          <mxGeometry width="50" height="50" relative="1" as="geometry">
            <mxPoint x="324" y="735.5" as="sourcePoint" />
            <mxPoint x="365.85786437626894" y="845.3578643762689" as="targetPoint" />
            <Array as="points">
              <mxPoint x="500" y="599.5" />
            </Array>
          </mxGeometry>
        </mxCell>
        <mxCell id="qRD6dHeys7h9iACDQK_x-117" value="&lt;font face=&quot;Helvetica&quot; style=&quot;font-size: 24px;&quot;&gt;5&lt;/font&gt;" style="ellipse;whiteSpace=wrap;html=1;aspect=fixed;strokeWidth=2;" parent="1" vertex="1">
          <mxGeometry x="520" y="839.5" width="40" height="40" as="geometry" />
        </mxCell>
        <mxCell id="qRD6dHeys7h9iACDQK_x-118" value="&lt;font face=&quot;Helvetica&quot; style=&quot;font-size: 24px;&quot;&gt;7&lt;/font&gt;" style="ellipse;whiteSpace=wrap;html=1;aspect=fixed;strokeWidth=2;" parent="1" vertex="1">
          <mxGeometry x="680" y="839.5" width="40" height="40" as="geometry" />
        </mxCell>
        <mxCell id="qRD6dHeys7h9iACDQK_x-119" value="&lt;font face=&quot;Helvetica&quot; style=&quot;font-size: 24px;&quot;&gt;2&lt;/font&gt;" style="ellipse;whiteSpace=wrap;html=1;aspect=fixed;strokeWidth=2;" parent="1" vertex="1">
          <mxGeometry x="760" y="839.5" width="40" height="40" as="geometry" />
        </mxCell>
        <mxCell id="qRD6dHeys7h9iACDQK_x-120" value="" style="curved=1;endArrow=classic;html=1;rounded=0;exitX=1;exitY=0;exitDx=0;exitDy=0;entryX=0;entryY=0;entryDx=0;entryDy=0;strokeWidth=2;" parent="1" source="qRD6dHeys7h9iACDQK_x-117" target="qRD6dHeys7h9iACDQK_x-118" edge="1">
          <mxGeometry width="50" height="50" relative="1" as="geometry">
            <mxPoint x="564" y="733.5" as="sourcePoint" />
            <mxPoint x="616" y="733.5" as="targetPoint" />
            <Array as="points">
              <mxPoint x="620" y="778.5" />
            </Array>
          </mxGeometry>
        </mxCell>
        <mxCell id="qRD6dHeys7h9iACDQK_x-123" value="&lt;font face=&quot;Helvetica&quot; style=&quot;font-size: 24px;&quot;&gt;4&lt;/font&gt;" style="ellipse;whiteSpace=wrap;html=1;aspect=fixed;strokeWidth=2;" parent="1" vertex="1">
          <mxGeometry x="440" y="839.5" width="40" height="40" as="geometry" />
        </mxCell>
        <mxCell id="qRD6dHeys7h9iACDQK_x-125" value="&lt;font face=&quot;Helvetica&quot; style=&quot;font-size: 24px;&quot;&gt;9&lt;/font&gt;" style="ellipse;whiteSpace=wrap;html=1;aspect=fixed;strokeWidth=2;" parent="1" vertex="1">
          <mxGeometry x="360" y="839.5" width="40" height="40" as="geometry" />
        </mxCell>
        <mxCell id="qRD6dHeys7h9iACDQK_x-127" value="&lt;font face=&quot;Helvetica&quot; style=&quot;font-size: 24px;&quot;&gt;6&lt;/font&gt;" style="ellipse;whiteSpace=wrap;html=1;aspect=fixed;strokeWidth=2;strokeColor=#030303;" parent="1" vertex="1">
          <mxGeometry x="600" y="839.5" width="40" height="40" as="geometry" />
        </mxCell>
        <mxCell id="qRD6dHeys7h9iACDQK_x-128" value="" style="curved=1;endArrow=classic;html=1;rounded=0;exitX=1;exitY=0;exitDx=0;exitDy=0;entryX=0;entryY=0;entryDx=0;entryDy=0;strokeWidth=2;strokeColor=#030303;" parent="1" source="qRD6dHeys7h9iACDQK_x-127" target="qRD6dHeys7h9iACDQK_x-118" edge="1">
          <mxGeometry width="50" height="50" relative="1" as="geometry">
            <mxPoint x="638" y="844.5" as="sourcePoint" />
            <mxPoint x="686" y="844.5" as="targetPoint" />
            <Array as="points">
              <mxPoint x="660" y="819.5" />
            </Array>
          </mxGeometry>
        </mxCell>
        <mxCell id="qRD6dHeys7h9iACDQK_x-129" value="&lt;font face=&quot;Helvetica&quot; style=&quot;font-size: 24px;&quot;&gt;8&lt;/font&gt;" style="ellipse;whiteSpace=wrap;html=1;aspect=fixed;strokeWidth=2;strokeColor=#030303;" parent="1" vertex="1">
          <mxGeometry x="280" y="839.5" width="40" height="40" as="geometry" />
        </mxCell>
        <mxCell id="qRD6dHeys7h9iACDQK_x-130" value="" style="curved=1;endArrow=classic;html=1;rounded=0;exitX=1;exitY=0;exitDx=0;exitDy=0;entryX=0;entryY=0;entryDx=0;entryDy=0;strokeWidth=2;strokeColor=#030303;" parent="1" source="qRD6dHeys7h9iACDQK_x-115" target="qRD6dHeys7h9iACDQK_x-123" edge="1">
          <mxGeometry width="50" height="50" relative="1" as="geometry">
            <mxPoint x="1244" y="274.5" as="sourcePoint" />
            <mxPoint x="1296" y="274.5" as="targetPoint" />
            <Array as="points">
              <mxPoint x="340" y="740" />
            </Array>
          </mxGeometry>
        </mxCell>
        <mxCell id="qRD6dHeys7h9iACDQK_x-72" value="" style="curved=1;endArrow=classic;html=1;rounded=0;exitX=1;exitY=0;exitDx=0;exitDy=0;entryX=0;entryY=0;entryDx=0;entryDy=0;strokeWidth=2;strokeColor=#030303;" parent="1" target="qRD6dHeys7h9iACDQK_x-119" edge="1" source="qRD6dHeys7h9iACDQK_x-47">
          <mxGeometry width="50" height="50" relative="1" as="geometry">
            <mxPoint x="234.1421356237306" y="845.3578643762696" as="sourcePoint" />
            <mxPoint x="812" y="614.5" as="targetPoint" />
            <Array as="points">
              <mxPoint x="460" y="560" />
            </Array>
          </mxGeometry>
        </mxCell>
        <mxCell id="qRD6dHeys7h9iACDQK_x-134" value="" style="curved=1;endArrow=classic;html=1;rounded=0;exitX=1;exitY=0;exitDx=0;exitDy=0;entryX=0;entryY=0;entryDx=0;entryDy=0;strokeWidth=2;" parent="1" target="qRD6dHeys7h9iACDQK_x-137" edge="1">
          <mxGeometry width="50" height="50" relative="1" as="geometry">
            <mxPoint x="312.14213562373106" y="1083.857864376269" as="sourcePoint" />
            <mxPoint x="445.85786437626894" y="1084.857864376269" as="targetPoint" />
            <Array as="points">
              <mxPoint x="580" y="839" />
            </Array>
          </mxGeometry>
        </mxCell>
        <mxCell id="qRD6dHeys7h9iACDQK_x-142" value="" style="curved=1;endArrow=classic;html=1;rounded=0;exitX=1;exitY=0;exitDx=0;exitDy=0;entryX=0;entryY=0;entryDx=0;entryDy=0;strokeWidth=2;" parent="1" source="qRD6dHeys7h9iACDQK_x-141" edge="1">
          <mxGeometry width="50" height="50" relative="1" as="geometry">
            <mxPoint x="560" y="1053" as="sourcePoint" />
            <mxPoint x="843.8578643762689" y="1083.857864376269" as="targetPoint" />
            <Array as="points">
              <mxPoint x="700" y="938" />
            </Array>
          </mxGeometry>
        </mxCell>
        <mxCell id="qRD6dHeys7h9iACDQK_x-144" value="" style="curved=1;endArrow=classic;html=1;rounded=0;exitX=1;exitY=0;exitDx=0;exitDy=0;entryX=0;entryY=0;entryDx=0;entryDy=0;strokeWidth=2;" parent="1" source="qRD6dHeys7h9iACDQK_x-143" edge="1">
          <mxGeometry width="50" height="50" relative="1" as="geometry">
            <mxPoint x="880" y="1208" as="sourcePoint" />
            <mxPoint x="843.8578643762689" y="1083.857864376269" as="targetPoint" />
            <Array as="points">
              <mxPoint x="660" y="899" />
            </Array>
          </mxGeometry>
        </mxCell>
        <mxCell id="cC3roZ8pAEgCqgUitMeF-1" value="" style="curved=1;endArrow=classic;html=1;rounded=0;exitX=1;exitY=0;exitDx=0;exitDy=0;entryX=0;entryY=0;entryDx=0;entryDy=0;strokeWidth=2;strokeColor=#030303;" edge="1" parent="1" source="qRD6dHeys7h9iACDQK_x-115" target="qRD6dHeys7h9iACDQK_x-118">
          <mxGeometry width="50" height="50" relative="1" as="geometry">
            <mxPoint x="244" y="854" as="sourcePoint" />
            <mxPoint x="456" y="854" as="targetPoint" />
            <Array as="points">
              <mxPoint x="460" y="640" />
            </Array>
          </mxGeometry>
        </mxCell>
        <mxCell id="cC3roZ8pAEgCqgUitMeF-2" value="" style="curved=1;endArrow=classic;html=1;rounded=0;exitX=1;exitY=0;exitDx=0;exitDy=0;entryX=0;entryY=0;entryDx=0;entryDy=0;strokeWidth=2;strokeColor=#030303;" edge="1" parent="1" source="qRD6dHeys7h9iACDQK_x-129" target="qRD6dHeys7h9iACDQK_x-125">
          <mxGeometry width="50" height="50" relative="1" as="geometry">
            <mxPoint x="244" y="854" as="sourcePoint" />
            <mxPoint x="456" y="854" as="targetPoint" />
            <Array as="points">
              <mxPoint x="340" y="820" />
            </Array>
          </mxGeometry>
        </mxCell>
        <mxCell id="cC3roZ8pAEgCqgUitMeF-3" value="" style="curved=1;endArrow=classic;html=1;rounded=0;exitX=1;exitY=0;exitDx=0;exitDy=0;entryX=0;entryY=0;entryDx=0;entryDy=0;strokeWidth=2;strokeColor=#030303;" edge="1" parent="1" source="qRD6dHeys7h9iACDQK_x-129" target="qRD6dHeys7h9iACDQK_x-123">
          <mxGeometry width="50" height="50" relative="1" as="geometry">
            <mxPoint x="324" y="855" as="sourcePoint" />
            <mxPoint x="376" y="853" as="targetPoint" />
            <Array as="points">
              <mxPoint x="380" y="780" />
            </Array>
          </mxGeometry>
        </mxCell>
        <mxCell id="cC3roZ8pAEgCqgUitMeF-4" value="" style="curved=1;endArrow=classic;html=1;rounded=0;exitX=1;exitY=0;exitDx=0;exitDy=0;entryX=0;entryY=0;entryDx=0;entryDy=0;strokeWidth=2;strokeColor=#030303;" edge="1" parent="1" source="qRD6dHeys7h9iACDQK_x-125" target="qRD6dHeys7h9iACDQK_x-123">
          <mxGeometry width="50" height="50" relative="1" as="geometry">
            <mxPoint x="324" y="855" as="sourcePoint" />
            <mxPoint x="376" y="855" as="targetPoint" />
            <Array as="points">
              <mxPoint x="420" y="820" />
            </Array>
          </mxGeometry>
        </mxCell>
        <mxCell id="cC3roZ8pAEgCqgUitMeF-5" value="" style="curved=1;endArrow=classic;html=1;rounded=0;exitX=1;exitY=0;exitDx=0;exitDy=0;entryX=0;entryY=0;entryDx=0;entryDy=0;strokeWidth=2;strokeColor=#030303;" edge="1" parent="1" source="qRD6dHeys7h9iACDQK_x-123" target="qRD6dHeys7h9iACDQK_x-117">
          <mxGeometry width="50" height="50" relative="1" as="geometry">
            <mxPoint x="450" y="825" as="sourcePoint" />
            <mxPoint x="502" y="825" as="targetPoint" />
            <Array as="points">
              <mxPoint x="500" y="820" />
            </Array>
          </mxGeometry>
        </mxCell>
        <mxCell id="cC3roZ8pAEgCqgUitMeF-6" value="" style="curved=1;endArrow=classic;html=1;rounded=0;exitX=1;exitY=0;exitDx=0;exitDy=0;entryX=0;entryY=0;entryDx=0;entryDy=0;strokeWidth=2;strokeColor=#030303;" edge="1" parent="1" source="qRD6dHeys7h9iACDQK_x-117" target="qRD6dHeys7h9iACDQK_x-127">
          <mxGeometry width="50" height="50" relative="1" as="geometry">
            <mxPoint x="484" y="855" as="sourcePoint" />
            <mxPoint x="536" y="855" as="targetPoint" />
            <Array as="points">
              <mxPoint x="580" y="820" />
            </Array>
          </mxGeometry>
        </mxCell>
        <mxCell id="cC3roZ8pAEgCqgUitMeF-7" value="" style="curved=1;endArrow=classic;html=1;rounded=0;exitX=1;exitY=0;exitDx=0;exitDy=0;entryX=0;entryY=0;entryDx=0;entryDy=0;strokeWidth=2;strokeColor=#030303;" edge="1" parent="1" source="qRD6dHeys7h9iACDQK_x-119" target="qRD6dHeys7h9iACDQK_x-48">
          <mxGeometry width="50" height="50" relative="1" as="geometry">
            <mxPoint x="644" y="855" as="sourcePoint" />
            <mxPoint x="696" y="855" as="targetPoint" />
            <Array as="points">
              <mxPoint x="820" y="820" />
            </Array>
          </mxGeometry>
        </mxCell>
      </root>
    </mxGraphModel>
  </diagram>
</mxfile>
